<svg width="1440" height="1024" viewBox="0 0 1440 1024" fill="none" xmlns="http://www.w3.org/2000/svg">
<path d="M497 294L556 154.5L725.5 90L875.5 154.5L949 294L889 474.5L866 793H520L654.5 562L520 599.5V474.5H443L520 321.5L497 294Z" fill="black" stroke="black"/>
<circle cx="772.5" cy="257" r="225" fill="white"/>
<line y1="-1.5" x2="54.4486" y2="-1.5" transform="matrix(-0.760183 0.649709 -0.685096 -0.728453 811.545 180.306)" stroke="black" stroke-width="3"/>
<line y1="-1.5" x2="54.4486" y2="-1.5" transform="matrix(-0.760183 0.649709 -0.685096 -0.728453 821.536 188.47)" stroke="black" stroke-width="3"/>
<line y1="-1.5" x2="101.436" y2="-1.5" transform="matrix(0.689461 0.724323 -0.756304 0.654221 667.391 142.209)" stroke="black" stroke-width="3"/>
<line y1="-1.5" x2="106.406" y2="-1.5" transform="matrix(0.710913 0.70328 -0.736435 0.676508 657.4 149.012)" stroke="black" stroke-width="3"/>
<line y1="-1.5" x2="143.949" y2="-1.5" transform="matrix(0.97168 0.236299 -0.258506 0.96601 674.527 121.8)" stroke="black" stroke-width="3"/>
<line y1="-1.5" x2="143.949" y2="-1.5" transform="matrix(0.97168 0.236299 -0.258506 0.96601 671.673 132.685)" stroke="black" stroke-width="3"/>
<line y1="-1.5" x2="146.959" y2="-1.5" transform="matrix(0.980917 -0.194427 0.213099 0.977031 713.064 369.43)" stroke="black" stroke-width="3"/>
<line y1="-1.5" x2="146.959" y2="-1.5" transform="matrix(0.980917 -0.194427 0.213099 0.977031 710.209 358.545)" stroke="black" stroke-width="3"/>
<ellipse cx="650.5" cy="124.5" rx="22" ry="20.5" fill="black"/>
<ellipse cx="650.5" cy="124" rx="14" ry="13" fill="white"/>
<ellipse cx="835.5" cy="165.5" rx="22" ry="20.5" fill="black"/>
<ellipse cx="835.5" cy="165.5" rx="14" ry="13.5" fill="white"/>
<ellipse cx="759.5" cy="240.5" rx="21" ry="20.5" fill="black"/>
<ellipse cx="758.5" cy="240.5" rx="14" ry="13.5" fill="white"/>
<circle cx="878.5" cy="321" r="21" fill="black"/>
<ellipse cx="878" cy="321" rx="14.5" ry="13" fill="white"/>
<ellipse cx="686" cy="362" rx="21.5" ry="20" fill="black"/>
<circle cx="686.5" cy="362" r="14" fill="white"/>
<ellipse cx="961.5" cy="206.5" rx="21" ry="20.5" fill="black"/>
<ellipse cx="962" cy="206.5" rx="14.5" ry="13.5" fill="white"/>
<ellipse cx="607.5" cy="240.5" rx="21" ry="20.5" fill="black"/>
<ellipse cx="607.5" cy="240.5" rx="15" ry="13.5" fill="white"/>
<line y1="-1.5" x2="74.7964" y2="-1.5" transform="matrix(0.324396 -0.945921 0.95471 0.297538 611.727 215.682)" stroke="black" stroke-width="3"/>
<line y1="-1.5" x2="74.7964" y2="-1.5" transform="matrix(0.324396 -0.945921 0.95471 0.297538 623.145 219.764)" stroke="black" stroke-width="3"/>
<line y1="-1.5" x2="96.0885" y2="-1.5" transform="matrix(0.549588 0.835436 -0.858315 0.513123 611.727 264.664)" stroke="black" stroke-width="3"/>
<path d="M626 256.5L678.809 336.776" stroke="black" stroke-width="3"/>
<line y1="-1.5" x2="99.9181" y2="-1.5" transform="matrix(0.999912 -0.013239 0.0145679 0.999894 633.136 234.693)" stroke="black" stroke-width="3"/>
<line y1="-1.5" x2="145.783" y2="-1.5" transform="matrix(0.988827 -0.14907 0.163653 0.986518 790.136 231.971)" stroke="black" stroke-width="3"/>
<line y1="-1.5" x2="145.783" y2="-1.5" transform="matrix(0.988827 -0.14907 0.163653 0.986518 790.136 242.856)" stroke="black" stroke-width="3"/>
<line y1="-1.5" x2="99.9181" y2="-1.5" transform="matrix(0.999912 -0.013239 0.0145679 0.999894 633.136 248.299)" stroke="black" stroke-width="3"/>
<line y1="-1.5" x2="86.5115" y2="-1.5" transform="matrix(0.527938 -0.849283 0.870676 0.491856 695.936 334.055)" stroke="black" stroke-width="3"/>
<line y1="-1.5" x2="86.5115" y2="-1.5" transform="matrix(0.527938 -0.849283 0.870676 0.491856 707.355 340.858)" stroke="black" stroke-width="3"/>
<line y1="-1.5" x2="95.5209" y2="-1.5" transform="matrix(-0.821809 -0.569762 0.606548 -0.795047 854.364 315.006)" stroke="black" stroke-width="3"/>
<line y1="-1.5" x2="89.6568" y2="-1.5" transform="matrix(0.573095 -0.819489 0.843981 0.536373 892.9 297.318)" stroke="black" stroke-width="3"/>
<line y1="-1.5" x2="89.6568" y2="-1.5" transform="matrix(0.573095 -0.819489 0.843981 0.536373 902.891 305.482)" stroke="black" stroke-width="3"/>
<line y1="-1.5" x2="97.1304" y2="-1.5" transform="matrix(-0.837581 -0.546313 0.583092 -0.812406 864.355 301.4)" stroke="black" stroke-width="3"/>
<line y1="-1.5" x2="79.0496" y2="-1.5" transform="matrix(-0.938881 -0.344241 0.374156 -0.927366 935.718 188.47)" stroke="black" stroke-width="3"/>
<line y1="-1.5" x2="79.0496" y2="-1.5" transform="matrix(-0.938881 -0.344241 0.374156 -0.927366 934.291 199.355)" stroke="black" stroke-width="3"/>
</svg>
